<?xml version="1.0" encoding="UTF-8"?><svg xmlns="http://www.w3.org/2000/svg" xmlns:xlink="http://www.w3.org/1999/xlink" viewBox="0 0 728.5 515.91"><defs><style>.cls-1{fill:url(#_名称未設定グラデーション_694-17);}.cls-1,.cls-2,.cls-3,.cls-4,.cls-5,.cls-6,.cls-7,.cls-8,.cls-9,.cls-10,.cls-11,.cls-12,.cls-13,.cls-14,.cls-15,.cls-16,.cls-17,.cls-18,.cls-19,.cls-20,.cls-21,.cls-22,.cls-23,.cls-24,.cls-25,.cls-26,.cls-27,.cls-28,.cls-29,.cls-30,.cls-31,.cls-32,.cls-33,.cls-34,.cls-35,.cls-36,.cls-37,.cls-38,.cls-39,.cls-40,.cls-41,.cls-42,.cls-43,.cls-44,.cls-45,.cls-46,.cls-47,.cls-48,.cls-49,.cls-50,.cls-51,.cls-52,.cls-53,.cls-54,.cls-55,.cls-56,.cls-57,.cls-58,.cls-59,.cls-60,.cls-61,.cls-62,.cls-63{stroke:#4d4d66;stroke-linecap:round;stroke-linejoin:round;stroke-width:2px;}.cls-2{fill:url(#_名称未設定グラデーション_698-26);}.cls-64{fill:#fff;}.cls-3{fill:none;}.cls-4{fill:url(#_名称未設定グラデーション_694-12);}.cls-5{fill:url(#_名称未設定グラデーション_694-20);}.cls-6{fill:url(#_名称未設定グラデーション_698-11);}.cls-7{fill:url(#_名称未設定グラデーション_694-25);}.cls-8{fill:url(#_名称未設定グラデーション_694);}.cls-9{fill:url(#_名称未設定グラデーション_694-7);}.cls-10{fill:url(#_名称未設定グラデーション_717-2);}.cls-11{fill:url(#_名称未設定グラデーション_694-3);}.cls-12{fill:url(#_名称未設定グラデーション_698-25);}.cls-13{fill:url(#_名称未設定グラデーション_694-9);}.cls-14{fill:url(#_名称未設定グラデーション_694-23);}.cls-15{fill:url(#_名称未設定グラデーション_694-4);}.cls-16{fill:url(#_名称未設定グラデーション_698-20);}.cls-17{fill:url(#_名称未設定グラデーション_698-15);}.cls-18{fill:url(#_名称未設定グラデーション_694-21);}.cls-19{fill:url(#_名称未設定グラデーション_694-19);}.cls-20{fill:url(#_名称未設定グラデーション_694-22);}.cls-21{fill:url(#_名称未設定グラデーション_698-23);}.cls-22{fill:url(#_名称未設定グラデーション_698-10);}.cls-23{fill:url(#_名称未設定グラデーション_698-18);}.cls-24{fill:url(#_名称未設定グラデーション_698-19);}.cls-25{fill:url(#_名称未設定グラデーション_698-3);}.cls-26{fill:url(#_名称未設定グラデーション_694-27);}.cls-27{fill:url(#_名称未設定グラデーション_698-17);}.cls-28{fill:url(#_名称未設定グラデーション_1164-3);}.cls-29{fill:url(#_名称未設定グラデーション_698-24);}.cls-30{fill:url(#_名称未設定グラデーション_694-11);}.cls-65{opacity:.75;}.cls-31{fill:url(#_名称未設定グラデーション_698-9);}.cls-32{fill:url(#_名称未設定グラデーション_694-24);}.cls-66{fill:#4d4d66;}.cls-33{fill:url(#_名称未設定グラデーション_717);}.cls-34{fill:url(#_名称未設定グラデーション_698-13);}.cls-35{fill:url(#_名称未設定グラデーション_694-8);}.cls-36{fill:url(#_名称未設定グラデーション_1164);}.cls-37{fill:url(#_名称未設定グラデーション_694-14);}.cls-67{fill:url(#_名称未設定グラデーション_1340);}.cls-38{fill:url(#_名称未設定グラデーション_694-28);}.cls-39{fill:url(#_名称未設定グラデーション_698-5);}.cls-40{fill:url(#_名称未設定グラデーション_698-14);}.cls-41{fill:url(#_名称未設定グラデーション_694-16);}.cls-42{fill:url(#_名称未設定グラデーション_698-8);}.cls-43{fill:url(#_名称未設定グラデーション_698-4);}.cls-44{fill:url(#_名称未設定グラデーション_694-29);}.cls-45{fill:url(#_名称未設定グラデーション_698-16);}.cls-46{fill:url(#_名称未設定グラデーション_694-18);}.cls-47{fill:url(#_名称未設定グラデーション_698-22);}.cls-48{fill:url(#_名称未設定グラデーション_698-21);}.cls-49{fill:url(#_名称未設定グラデーション_1164-4);}.cls-50{fill:url(#_名称未設定グラデーション_698-27);}.cls-51{fill:url(#_名称未設定グラデーション_694-15);}.cls-52{fill:url(#_名称未設定グラデーション_694-13);}.cls-53{fill:url(#_名称未設定グラデーション_694-6);}.cls-54{fill:url(#_名称未設定グラデーション_698-2);}.cls-55{fill:url(#_名称未設定グラデーション_694-5);}.cls-56{fill:url(#_名称未設定グラデーション_698-7);}.cls-57{fill:url(#_名称未設定グラデーション_694-10);}.cls-58{fill:url(#_名称未設定グラデーション_698-6);}.cls-59{fill:url(#_名称未設定グラデーション_698-12);}.cls-60{fill:url(#_名称未設定グラデーション_694-2);}.cls-61{fill:url(#_名称未設定グラデーション_698);}.cls-62{fill:url(#_名称未設定グラデーション_1164-2);}.cls-63{fill:url(#_名称未設定グラデーション_694-26);}</style><linearGradient id="_名称未設定グラデーション_1340" x1="278.47" y1="412.84" x2="453.11" y2="110.34" gradientUnits="userSpaceOnUse"><stop offset="0" stop-color="#2e74bb"/><stop offset="1" stop-color="#90f8e3"/></linearGradient><linearGradient id="_名称未設定グラデーション_1164" x1="253.85" y1="295.89" x2="480.85" y2="295.89" gradientUnits="userSpaceOnUse"><stop offset="0" stop-color="#b8f5f5"/><stop offset="1" stop-color="#dbebeb"/></linearGradient><linearGradient id="_名称未設定グラデーション_1164-2" x1="253.85" y1="294.68" x2="480.85" y2="294.68" xlink:href="#_名称未設定グラデーション_1164"/><linearGradient id="_名称未設定グラデーション_694" x1="307.84" y1="195.62" x2="422.61" y2="394.4" gradientUnits="userSpaceOnUse"><stop offset="0" stop-color="#f2d56b"/><stop offset="1" stop-color="#f2dd8f"/></linearGradient><linearGradient id="_名称未設定グラデーション_698" x1="326.25" y1="479.78" x2="413.4" y2="328.83" gradientUnits="userSpaceOnUse"><stop offset="0" stop-color="#f8a86b"/><stop offset="1" stop-color="#f8bd90"/></linearGradient><linearGradient id="_名称未設定グラデーション_694-2" x1="217.86" y1="247.58" x2="332.62" y2="446.35" xlink:href="#_名称未設定グラデーション_694"/><linearGradient id="_名称未設定グラデーション_698-2" x1="262.07" y1="442.73" x2="349.22" y2="291.78" xlink:href="#_名称未設定グラデーション_698"/><linearGradient id="_名称未設定グラデーション_694-3" x1="200.83" y1="257.41" x2="315.59" y2="456.18" xlink:href="#_名称未設定グラデーション_694"/><linearGradient id="_名称未設定グラデーション_698-3" x1="230.62" y1="424.57" x2="317.77" y2="273.62" xlink:href="#_名称未設定グラデーション_698"/><linearGradient id="_名称未設定グラデーション_698-4" x1="212.2" y1="337.96" x2="259.03" y2="256.85" xlink:href="#_名称未設定グラデーション_698"/><linearGradient id="_名称未設定グラデーション_694-4" x1="206.56" y1="254.1" x2="321.32" y2="452.88" xlink:href="#_名称未設定グラデーション_694"/><linearGradient id="_名称未設定グラデーション_698-5" x1="225.46" y1="345.62" x2="272.29" y2="264.5" xlink:href="#_名称未設定グラデーション_698"/><linearGradient id="_名称未設定グラデーション_694-5" x1="236.77" y1="236.66" x2="351.53" y2="435.43" xlink:href="#_名称未設定グラデーション_694"/><linearGradient id="_名称未設定グラデーション_698-6" x1="202.98" y1="332.64" x2="249.81" y2="251.52" xlink:href="#_名称未設定グラデーション_698"/><linearGradient id="_名称未設定グラデーション_694-6" x1="232.7" y1="239.01" x2="347.46" y2="437.78" xlink:href="#_名称未設定グラデーション_694"/><linearGradient id="_名称未設定グラデーション_698-7" x1="204.17" y1="333.33" x2="251" y2="252.21" xlink:href="#_名称未設定グラデーション_698"/><linearGradient id="_名称未設定グラデーション_694-7" x1="238.77" y1="235.5" x2="353.53" y2="434.28" xlink:href="#_名称未設定グラデーション_694"/><linearGradient id="_名称未設定グラデーション_698-8" x1="202.51" y1="332.37" x2="249.34" y2="251.25" xlink:href="#_名称未設定グラデーション_698"/><linearGradient id="_名称未設定グラデーション_694-8" x1="234.54" y1="237.95" x2="349.3" y2="436.72" xlink:href="#_名称未設定グラデーション_694"/><linearGradient id="_名称未設定グラデーション_698-9" x1="203.59" y1="332.99" x2="250.42" y2="251.87" xlink:href="#_名称未設定グラデーション_698"/><linearGradient id="_名称未設定グラデーション_694-9" x1="229.15" y1="241.06" x2="343.92" y2="439.83" xlink:href="#_名称未設定グラデーション_694"/><linearGradient id="_名称未設定グラデーション_698-10" x1="205.5" y1="334.1" x2="252.33" y2="252.98" xlink:href="#_名称未設定グラデーション_698"/><linearGradient id="_名称未設定グラデーション_694-10" x1="209.54" y1="252.38" x2="324.3" y2="451.16" xlink:href="#_名称未設定グラデーション_694"/><linearGradient id="_名称未設定グラデーション_698-11" x1="220.82" y1="342.94" x2="267.65" y2="261.82" xlink:href="#_名称未設定グラデーション_698"/><linearGradient id="_名称未設定グラデーション_694-11" x1="211.14" y1="251.46" x2="325.9" y2="450.23" xlink:href="#_名称未設定グラデーション_694"/><linearGradient id="_名称未設定グラデーション_698-12" x1="218.75" y1="341.75" x2="265.59" y2="260.63" xlink:href="#_名称未設定グラデーション_698"/><linearGradient id="_名称未設定グラデーション_694-12" x1="218.94" y1="246.95" x2="333.71" y2="445.72" xlink:href="#_名称未設定グラデーション_694"/><linearGradient id="_名称未設定グラデーション_698-13" x1="212.5" y1="338.14" x2="259.34" y2="257.02" xlink:href="#_名称未設定グラデーション_698"/><linearGradient id="_名称未設定グラデーション_694-13" x1="230.93" y1="240.03" x2="345.69" y2="438.8" xlink:href="#_名称未設定グラデーション_694"/><linearGradient id="_名称未設定グラデーション_698-14" x1="204.79" y1="333.69" x2="251.63" y2="252.57" xlink:href="#_名称未設定グラデーション_698"/><linearGradient id="_名称未設定グラデーション_694-14" x1="207.9" y1="253.33" x2="322.66" y2="452.1" xlink:href="#_名称未設定グラデーション_694"/><linearGradient id="_名称未設定グラデーション_698-15" x1="223.21" y1="344.32" x2="270.05" y2="263.21" xlink:href="#_名称未設定グラデーション_698"/><linearGradient id="_名称未設定グラデーション_694-15" x1="227.26" y1="242.15" x2="342.02" y2="440.92" xlink:href="#_名称未設定グラデーション_694"/><linearGradient id="_名称未設定グラデーション_698-16" x1="206.33" y1="334.58" x2="253.17" y2="253.46" xlink:href="#_名称未設定グラデーション_698"/><linearGradient id="_名称未設定グラデーション_698-17" x1="472.15" y1="348.32" x2="519.43" y2="266.42" xlink:href="#_名称未設定グラデーション_698"/><linearGradient id="_名称未設定グラデーション_694-16" x1="406.17" y1="138.85" x2="520.94" y2="337.63" xlink:href="#_名称未設定グラデーション_694"/><linearGradient id="_名称未設定グラデーション_698-18" x1="457.68" y1="339.97" x2="504.97" y2="258.06" xlink:href="#_名称未設定グラデーション_698"/><linearGradient id="_名称未設定グラデーション_694-17" x1="411.17" y1="135.97" x2="525.93" y2="334.74" xlink:href="#_名称未設定グラデーション_694"/><linearGradient id="_名称未設定グラデーション_698-19" x1="449.34" y1="335.16" x2="496.63" y2="253.25" xlink:href="#_名称未設定グラデーション_698"/><linearGradient id="_名称未設定グラデーション_694-18" x1="409.67" y1="136.84" x2="524.43" y2="335.61" xlink:href="#_名称未設定グラデーション_694"/><linearGradient id="_名称未設定グラデーション_698-20" x1="452.42" y1="336.93" x2="499.71" y2="255.03" xlink:href="#_名称未設定グラデーション_698"/><linearGradient id="_名称未設定グラデーション_694-19" x1="399.47" y1="142.73" x2="514.23" y2="341.5" xlink:href="#_名称未設定グラデーション_694"/><linearGradient id="_名称未設定グラデーション_698-21" x1="465.33" y1="344.39" x2="512.62" y2="262.48" xlink:href="#_名称未設定グラデーション_698"/><linearGradient id="_名称未設定グラデーション_694-20" x1="402.5" y1="140.97" x2="517.26" y2="339.75" xlink:href="#_名称未設定グラデーション_694"/><linearGradient id="_名称未設定グラデーション_698-22" x1="462.5" y1="342.75" x2="509.79" y2="260.85" xlink:href="#_名称未設定グラデーション_698"/><linearGradient id="_名称未設定グラデーション_694-21" x1="391.67" y1="147.23" x2="506.43" y2="346" xlink:href="#_名称未設定グラデーション_694"/><linearGradient id="_名称未設定グラデーション_698-23" x1="470.96" y1="347.64" x2="518.25" y2="265.73" xlink:href="#_名称未設定グラデーション_698"/><linearGradient id="_名称未設定グラデーション_694-22" x1="414.42" y1="134.09" x2="529.19" y2="332.86" xlink:href="#_名称未設定グラデーション_694"/><linearGradient id="_名称未設定グラデーション_698-24" x1="439.37" y1="329.4" x2="486.66" y2="247.49" xlink:href="#_名称未設定グラデーション_698"/><linearGradient id="_名称未設定グラデーション_694-23" x1="396.52" y1="144.43" x2="511.29" y2="343.2" xlink:href="#_名称未設定グラデーション_694"/><linearGradient id="_名称未設定グラデーション_698-25" x1="467.81" y1="345.82" x2="515.1" y2="263.91" xlink:href="#_名称未設定グラデーション_698"/><linearGradient id="_名称未設定グラデーション_694-24" x1="413.43" y1="134.66" x2="528.19" y2="333.44" xlink:href="#_名称未設定グラデーション_694"/><linearGradient id="_名称未設定グラデーション_698-26" x1="443.19" y1="331.61" x2="490.48" y2="249.7" xlink:href="#_名称未設定グラデーション_698"/><linearGradient id="_名称未設定グラデーション_694-25" x1="394.4" y1="145.65" x2="509.16" y2="344.42" xlink:href="#_名称未設定グラデーション_694"/><linearGradient id="_名称未設定グラデーション_698-27" x1="469.29" y1="346.67" x2="516.58" y2="264.76" xlink:href="#_名称未設定グラデーション_698"/><linearGradient id="_名称未設定グラデーション_694-26" x1="242.45" y1="176.33" x2="305.32" y2="67.43" xlink:href="#_名称未設定グラデーション_694"/><linearGradient id="_名称未設定グラデーション_694-27" x1="415.48" y1="195.08" x2="483.66" y2="76.99" xlink:href="#_名称未設定グラデーション_694"/><linearGradient id="_名称未設定グラデーション_694-28" x1="396.98" y1="144.16" x2="511.74" y2="342.93" xlink:href="#_名称未設定グラデーション_694"/><linearGradient id="_名称未設定グラデーション_694-29" x1="431.59" y1="204.44" x2="499.79" y2="86.31" xlink:href="#_名称未設定グラデーション_694"/><linearGradient id="_名称未設定グラデーション_1164-3" x1="253.85" y1="278.23" x2="480.85" y2="278.23" xlink:href="#_名称未設定グラデーション_1164"/><linearGradient id="_名称未設定グラデーション_717" x1="322.94" y1="278.23" x2="346.86" y2="278.23" gradientUnits="userSpaceOnUse"><stop offset="0" stop-color="#fdda90"/><stop offset="1" stop-color="#f8cb6b"/></linearGradient><linearGradient id="_名称未設定グラデーション_1164-4" x1="253.85" y1="278.23" x2="480.85" y2="278.23" xlink:href="#_名称未設定グラデーション_1164"/><linearGradient id="_名称未設定グラデーション_717-2" x1="384.73" x2="408.65" xlink:href="#_名称未設定グラデーション_717"/></defs><g id="_レイヤー_6" class="cls-65"><rect class="cls-64" width="728.5" height="515.91"/></g><g id="_レイヤー_10"><circle class="cls-66" cx="364.25" cy="257.95" r="228.11"/></g><g id="_レイヤー_8"><circle class="cls-67" cx="365.79" cy="261.59" r="174.62"/></g><g id="_レイヤー_3"><g><path class="cls-3" d="M247.23,256.4c-.22,.66-.44,1.33-.65,2,.21-.67,.43-1.33,.65-2Z"/><path class="cls-3" d="M241.87,312.44c.16,1.24,.34,2.48,.54,3.72-.2-1.24-.38-2.47-.54-3.72Z"/><path class="cls-3" d="M248.08,253.95c-.05,.14-.1,.28-.14,.41,.05-.14,.1-.28,.14-.41Z"/><path class="cls-3" d="M241.37,308.02c.12,1.24,.25,2.48,.41,3.71-.16-1.23-.29-2.47-.41-3.71Z"/><path class="cls-3" d="M487.93,269.39c.19,.89,.37,1.78,.54,2.67-.17-.89-.35-1.78-.54-2.67Z"/><path class="cls-3" d="M243.27,271.24c-.04,.2-.08,.4-.12,.6,.04-.2,.08-.4,.12-.6Z"/><path class="cls-3" d="M246.42,258.93c-.25,.8-.49,1.6-.72,2.4,.23-.8,.47-1.6,.72-2.4Z"/><path class="cls-3" d="M483.71,254.52c.46,1.3,.89,2.6,1.31,3.92-.42-1.31-.84-2.62-1.31-3.92Z"/><path class="cls-3" d="M244.08,267.54c-.13,.56-.26,1.13-.39,1.69,.12-.56,.25-1.13,.39-1.69Z"/><path class="cls-3" d="M240.95,302.09c0,.11,.01,.22,.02,.33,0-.11-.01-.22-.02-.33Z"/><path class="cls-3" d="M241.06,303.98c.06,.95,.13,1.91,.21,2.86-.08-.95-.15-1.91-.21-2.86Z"/><path class="cls-3" d="M244.85,264.42c-.19,.74-.38,1.47-.56,2.21,.18-.74,.36-1.48,.56-2.21Z"/><path class="cls-3" d="M490.18,308.3c-.04,.38-.08,.76-.12,1.14,.04-.38,.09-.76,.12-1.14Z"/><path class="cls-3" d="M485.31,259.39c.86,2.8,1.61,5.62,2.27,8.47-.66-2.85-1.42-5.67-2.27-8.47Z"/><path class="cls-3" d="M490.68,291.39c.01,.42,.04,.83,.05,1.25-.01-.42-.03-.83-.05-1.25Z"/><path class="cls-3" d="M490.46,305.03c0,.13-.02,.27-.03,.4,0-.13,.02-.27,.03-.4Z"/><path class="cls-3" d="M267.44,370.18c6.32,4.69,14.38,7.95,22.29,10.85-7.65-3.13-15.1-6.75-22.29-10.85Z"/><path class="cls-3" d="M245.62,261.59c-.23,.81-.45,1.62-.67,2.43,.22-.81,.44-1.62,.67-2.43Z"/><path class="cls-3" d="M490.77,295.02c0,.38,0,.76,0,1.15,0-.38,0-.76,0-1.15Z"/><path class="cls-3" d="M489.14,275.77c.05,.29,.1,.59,.14,.88-.05-.29-.1-.59-.14-.88Z"/><path class="cls-3" d="M489.69,312.59c-.14,1.05-.29,2.1-.45,3.14,.16-1.05,.32-2.09,.45-3.14Z"/><path class="cls-36" d="M287.08,237.08c-19.42,35.12-19.58,82.18-.14,117.56,49.19,22.04,113.35,21.25,161.91-1.86,2.45-4.79,4.59-9.76,6.41-14.88,11.53-31.24,8.93-69.8-6.54-98.96-48.49-23.04-112.51-23.81-161.64-1.86Zm47.81,64.37c-6.61,0-11.96-10.39-11.96-23.21s5.35-23.21,11.96-23.21,11.96,10.39,11.96,23.21-5.35,23.21-11.96,23.21Zm61.79,0c-6.61,0-11.96-10.39-11.96-23.21s5.35-23.21,11.96-23.21,11.96,10.39,11.96,23.21-5.35,23.21-11.96,23.21Z"/><path class="cls-62" d="M462.57,231.93c-28.33-14.13-53.62-25.79-95.14-27.36-41.52-1.57-88.63,16.65-88.63,16.65-11.44,16.77-24.94,65.22-24.94,65.22,0,0,1.39,59.21,24.94,73.35s46.71,26.92,88.63,24.9c41.92-2.02,74.71-4.71,94.98-28.26,20.28-23.55,28.49-110.36,.16-124.49Zm-7.31,105.97c-1.82,5.12-3.96,10.09-6.41,14.88-48.56,23.11-112.72,23.9-161.91,1.86-19.44-35.38-19.28-82.44,.14-117.56,49.13-21.95,113.15-21.18,161.64,1.86,15.47,29.16,18.07,67.72,6.54,98.96Z"/><path class="cls-8" d="M490.73,292.63c-.01-.41-.03-.83-.05-1.24-.18-4.94-.64-9.86-1.4-14.74-.05-.3-.09-.59-.14-.88-.2-1.24-.43-2.48-.67-3.71-.17-.89-.35-1.78-.54-2.67-.11-.51-.23-1.02-.35-1.53-.66-2.85-1.41-5.68-2.27-8.47-.1-.32-.2-.64-.3-.95-.41-1.32-.85-2.62-1.3-3.92-.28-.78-.57-1.56-.87-2.34-4.46-11.94-10.71-23.2-18.54-33.14-10.15-5.74-20.84-10.61-31.88-14.51-.03,.01-.07,.03-.1,.04-.44-.16-.87-.31-1.31-.46-.02-.03-.04-.07-.06-.1-4.48-1.54-9.01-2.94-13.58-4.15h-.01c-49.89-13.48-105.25-6.49-150.08,19.18-7.63,9.68-13.74,20.55-18.16,32.09h.01c-.36,.94-.71,1.88-1.05,2.82-.05,.14-.1,.27-.15,.41-.24,.68-.47,1.36-.7,2.04-.22,.66-.44,1.33-.65,1.99-.05,.18-.11,.36-.17,.54l-.72,2.4c-.02,.09-.05,.17-.07,.26-.23,.81-.45,1.62-.67,2.43-.04,.13-.07,.27-.11,.4-.19,.74-.37,1.48-.55,2.22-.07,.3-.15,.6-.22,.9-.13,.56-.26,1.13-.38,1.69-.15,.67-.29,1.34-.42,2.01-.04,.2-.09,.4-.12,.6-1.95,9.94-2.68,20.13-2.2,30.25,0,.11,0,.22,0,.32,.03,.53,.06,1.05,.1,1.57,.06,.95,.13,1.91,.21,2.86,.03,.39,.06,.79,.1,1.18,.12,1.24,.25,2.48,.41,3.72,.02,.23,.06,.46,.09,.7,.16,1.24,.34,2.48,.54,3.71,.01,.05,.02,.1,.02,.15,2.74,16.71,8.93,32.85,18.09,47.1,1.9,2.57,4.25,4.8,6.92,6.78,7.18,4.09,14.63,7.71,22.28,10.84,4.55,1.67,9.05,3.21,13.14,4.84,37.09,12.2,77.84,13.53,115.49,3.13,.02,.01,.05,0,.07-.02,1.23-.32,2.45-.68,3.67-1.04,15.97-5.93,39.77-11.48,49.62-25.53,8.8-13.94,14.7-29.67,17.4-45.93,.04-.25,.08-.49,.12-.73,.17-1.05,.31-2.1,.45-3.15,.14-1.05,.27-2.1,.38-3.15,.04-.38,.08-.76,.12-1.14,.09-.96,.17-1.92,.25-2.88,.01-.13,.01-.26,.02-.39,.21-2.95,.32-5.91,.32-8.87v-1.14c0-.8-.02-1.59-.04-2.39Zm-41.88,60.15c-48.56,23.11-112.72,23.9-161.91,1.86-19.44-35.37-19.28-82.44,.14-117.56,49.13-21.95,113.15-21.18,161.64,1.86,15.47,29.16,18.07,67.72,6.54,98.96-1.82,5.12-3.96,10.09-6.41,14.88Z"/><path class="cls-61" d="M267.44,370.18c-1.31-.74-2.61-1.5-3.9-2.28-1.05-1.48-2.04-2.98-3.02-4.51-.22-.3-.44-.59-.65-.9-12.18,19.34-18.77,41.68-19.07,64.73,67.17,57.72,182.81,57.72,249.98,0-.31-23.05-6.89-45.38-19.07-64.73-9.65,13.93-33.79,19.67-49.62,25.53-1.22,.37-2.45,.72-3.67,1.04-.02,.02-.05,.03-.07,.02-1.11,.31-2.24,.61-3.34,.88-36.25,9.23-75.1,8-110.69-3.52-.48-.2-.96-.39-1.45-.59-4.44-1.46-8.82-3.07-13.14-4.84-7.91-2.89-15.97-6.15-22.29-10.85Z"/><path class="cls-60" d="M302.87,385.86c-4.09-1.63-8.59-3.17-13.14-4.84,4.32,1.77,8.7,3.38,13.14,4.84Z"/><path class="cls-54" d="M302.87,385.86c-4.09-1.63-8.59-3.17-13.14-4.84,4.32,1.77,8.7,3.38,13.14,4.84Z"/><path class="cls-11" d="M267.44,370.18c-2.66-1.98-5.01-4.21-6.92-6.78,.98,1.52,1.98,3.03,3.02,4.51,1.29,.78,2.59,1.53,3.9,2.28Z"/><path class="cls-25" d="M267.44,370.18c-2.66-1.98-5.01-4.21-6.92-6.78,.98,1.52,1.98,3.03,3.02,4.51,1.29,.78,2.59,1.53,3.9,2.28Z"/><path class="cls-43" d="M241.87,312.44c-.03-.23-.06-.47-.09-.7-.15-1.23-.29-2.47-.41-3.71-.04-.4-.07-.79-.1-1.19-.08-.95-.15-1.91-.21-2.86-.01-.21-.04-.42-.05-.64-.02-.31-.03-.62-.05-.93,0-.11-.01-.22-.02-.33-.53-10.12,.23-20.3,2.2-30.25,.04-.2,.08-.4,.12-.6,.14-.67,.27-1.34,.42-2.01,.12-.56,.25-1.13,.39-1.69,.07-.3,.14-.6,.21-.91,.18-.74,.36-1.48,.56-2.21,.04-.13,.07-.27,.11-.4,.21-.81,.44-1.62,.67-2.43,.02-.09,.05-.17,.08-.26,.23-.8,.47-1.6,.72-2.4,.06-.18,.11-.36,.17-.54,.21-.67,.42-1.33,.65-2,.23-.68,.46-1.36,.7-2.04,.05-.14,.09-.28,.14-.41,.34-.94,.68-1.88,1.04-2.82-28.81,2.48-54.54,22.81-63.79,50.17,9.85,28.97,37.62,49.71,68.52,50.47-.83-1.67-1.62-3.36-2.38-5.07-4.34-9.69-7.34-19.94-9.04-30.4,0-.05-.02-.1-.02-.15-.2-1.24-.38-2.47-.54-3.72Z"/><path class="cls-15" d="M242.44,316.3s-.02-.1-.02-.15c0,.05,.02,.1,.02,.15Z"/><path class="cls-39" d="M242.44,316.3s-.02-.1-.02-.15c0,.05,.02,.1,.02,.15Z"/><path class="cls-55" d="M247.93,254.36c-.24,.68-.48,1.35-.7,2.04,.23-.68,.46-1.36,.7-2.04Z"/><path class="cls-58" d="M247.93,254.36c-.24,.68-.48,1.35-.7,2.04,.23-.68,.46-1.36,.7-2.04Z"/><path class="cls-53" d="M245.7,261.33c-.03,.09-.05,.17-.08,.26,.02-.09,.05-.17,.08-.26Z"/><path class="cls-56" d="M245.7,261.33c-.03,.09-.05,.17-.08,.26,.02-.09,.05-.17,.08-.26Z"/><path class="cls-9" d="M249.13,251.13s0,0-.01,0c-.36,.93-.7,1.87-1.04,2.82,.34-.94,.69-1.88,1.05-2.82Z"/><path class="cls-42" d="M249.13,251.13s0,0-.01,0c-.36,.93-.7,1.87-1.04,2.82,.34-.94,.69-1.88,1.05-2.82Z"/><path class="cls-35" d="M246.58,258.39c-.06,.18-.11,.36-.17,.54,.06-.18,.11-.36,.17-.54Z"/><path class="cls-31" d="M246.58,258.39c-.06,.18-.11,.36-.17,.54,.06-.18,.11-.36,.17-.54Z"/><path class="cls-13" d="M244.29,266.64c-.07,.3-.14,.6-.21,.91,.07-.3,.14-.6,.21-.91Z"/><path class="cls-22" d="M244.29,266.64c-.07,.3-.14,.6-.21,.91,.07-.3,.14-.6,.21-.91Z"/><path class="cls-57" d="M241.27,306.84c.03,.4,.06,.79,.1,1.19-.04-.4-.07-.79-.1-1.19Z"/><path class="cls-6" d="M241.27,306.84c.03,.4,.06,.79,.1,1.19-.04-.4-.07-.79-.1-1.19Z"/><path class="cls-30" d="M241.06,303.98c-.03-.52-.07-1.04-.09-1.56,.02,.31,.03,.62,.05,.93,.01,.21,.03,.42,.05,.64Z"/><path class="cls-59" d="M241.06,303.98c-.03-.52-.07-1.04-.09-1.56,.02,.31,.03,.62,.05,.93,.01,.21,.03,.42,.05,.64Z"/><path class="cls-4" d="M240.95,302.09c-.48-10.12,.25-20.3,2.2-30.25-1.97,9.95-2.73,20.13-2.2,30.25Z"/><path class="cls-34" d="M240.95,302.09c-.48-10.12,.25-20.3,2.2-30.25-1.97,9.95-2.73,20.13-2.2,30.25Z"/><path class="cls-52" d="M244.95,264.02c-.04,.13-.07,.27-.11,.4,.04-.13,.07-.27,.11-.4Z"/><path class="cls-40" d="M244.95,264.02c-.04,.13-.07,.27-.11,.4,.04-.13,.07-.27,.11-.4Z"/><path class="cls-37" d="M241.78,311.74c.03,.24,.06,.47,.09,.7-.03-.23-.07-.47-.09-.7Z"/><path class="cls-17" d="M241.78,311.74c.03,.24,.06,.47,.09,.7-.03-.23-.07-.47-.09-.7Z"/><path class="cls-51" d="M243.69,269.23c-.15,.67-.29,1.34-.42,2.01,.14-.67,.28-1.34,.42-2.01Z"/><path class="cls-45" d="M243.69,269.23c-.15,.67-.29,1.34-.42,2.01,.14-.67,.28-1.34,.42-2.01Z"/><path class="cls-27" d="M543.17,301.3c-2.51-7.24-6.09-14-10.57-20.04-11.85-16.12-30.05-27.06-50.01-29.76,.09,.22,.17,.45,.25,.68,.29,.78,.59,1.56,.87,2.34,.46,1.3,.89,2.6,1.31,3.92,.1,.32,.2,.63,.3,.95,.86,2.8,1.62,5.62,2.27,8.47,.12,.51,.23,1.02,.35,1.54,.19,.89,.37,1.78,.54,2.67,.24,1.23,.46,2.47,.66,3.71,.05,.29,.1,.59,.14,.88,.77,4.88,1.24,9.81,1.4,14.74,.02,.42,.03,.83,.05,1.25,0,.3,.03,.6,.03,.9,.01,.49,0,.99,0,1.48,0,.38,0,.76,0,1.15,0,2.96-.1,5.91-.32,8.86,0,.13-.02,.27-.03,.4-.07,.96-.15,1.92-.25,2.87-.04,.38-.08,.76-.12,1.14-.11,1.05-.23,2.1-.37,3.15-.14,1.05-.29,2.1-.45,3.14-.04,.24-.08,.49-.12,.73-1.99,12.18-5.75,24.07-11.29,35.13,29.84-2.07,55.77-22.36,65.35-50.3Z"/><path class="cls-41" d="M489.28,276.65c.76,4.88,1.22,9.8,1.4,14.74-.16-4.93-.63-9.86-1.4-14.74Z"/><path class="cls-23" d="M489.28,276.65c.76,4.88,1.22,9.8,1.4,14.74-.16-4.93-.63-9.86-1.4-14.74Z"/><path class="cls-1" d="M487.59,267.86c.12,.51,.23,1.02,.35,1.54-.11-.51-.23-1.02-.35-1.54Z"/><path class="cls-24" d="M487.59,267.86c.12,.51,.23,1.02,.35,1.54-.11-.51-.23-1.02-.35-1.54Z"/><path class="cls-46" d="M488.48,272.06c.24,1.23,.46,2.47,.66,3.71-.2-1.24-.42-2.48-.66-3.71Z"/><path class="cls-16" d="M488.48,272.06c.24,1.23,.46,2.47,.66,3.71-.2-1.24-.42-2.48-.66-3.71Z"/><path class="cls-19" d="M490.77,296.16c0,2.96-.11,5.91-.32,8.86,.21-2.95,.32-5.9,.32-8.86Z"/><path class="cls-48" d="M490.77,296.16c0,2.96-.11,5.91-.32,8.86,.21-2.95,.32-5.9,.32-8.86Z"/><path class="cls-5" d="M490.76,293.53c0-.3-.03-.6-.03-.9,.02,.79,.03,1.59,.04,2.38,0-.49,0-.99,0-1.48Z"/><path class="cls-47" d="M490.76,293.53c0-.3-.03-.6-.03-.9,.02,.79,.03,1.59,.04,2.38,0-.49,0-.99,0-1.48Z"/><path class="cls-18" d="M489.11,316.47c.04-.24,.08-.49,.12-.73-.04,.24-.08,.49-.12,.73Z"/><path class="cls-21" d="M489.11,316.47c.04-.24,.08-.49,.12-.73-.04,.24-.08,.49-.12,.73Z"/><path class="cls-20" d="M482.84,252.18c.29,.78,.59,1.56,.87,2.34-.28-.79-.58-1.56-.87-2.34Z"/><path class="cls-29" d="M482.84,252.18c.29,.78,.59,1.56,.87,2.34-.28-.79-.58-1.56-.87-2.34Z"/><path class="cls-14" d="M490.43,305.42c-.07,.96-.15,1.92-.25,2.87,.09-.96,.17-1.91,.25-2.87Z"/><path class="cls-12" d="M490.43,305.42c-.07,.96-.15,1.92-.25,2.87,.09-.96,.17-1.91,.25-2.87Z"/><path class="cls-32" d="M485.02,258.44c.1,.32,.2,.63,.3,.95-.1-.32-.2-.64-.3-.95Z"/><path class="cls-2" d="M485.02,258.44c.1,.32,.2,.63,.3,.95-.1-.32-.2-.64-.3-.95Z"/><path class="cls-7" d="M490.06,309.44c-.11,1.05-.24,2.1-.37,3.15,.14-1.05,.26-2.1,.37-3.15Z"/><path class="cls-50" d="M490.06,309.44c-.11,1.05-.24,2.1-.37,3.15,.14-1.05,.26-2.1,.37-3.15Z"/><path class="cls-63" d="M295.8,204.87c12.59-19.96,19.27-42.76,19.28-66.73,0-32.13-12.12-61.43-32.04-83.57-26.14,11.33-49.77,28.38-68.77,49.42,6.27,46.76,38.36,85.32,81.53,100.88Z"/><path class="cls-26" d="M512.73,105.92c-18.95-21.55-42.69-39.04-69.05-50.72-35.73,38.2-42.05,103.97-12.73,148.81,.49,.17,.98,.35,1.48,.52,42.15-15.58,73.47-53.08,80.31-98.61Z"/><path class="cls-38" d="M432.32,204.57s.07-.03,.1-.04c-.49-.17-.98-.35-1.48-.52,.02,.03,.04,.07,.06,.1,.44,.15,.87,.3,1.31,.46Z"/><path class="cls-44" d="M432.32,204.57s.07-.03,.1-.04c-.49-.17-.98-.35-1.48-.52,.02,.03,.04,.07,.06,.1,.44,.15,.87,.3,1.31,.46Z"/><ellipse class="cls-28" cx="334.9" cy="278.23" rx="11.96" ry="23.21"/><ellipse class="cls-33" cx="334.9" cy="278.23" rx="11.96" ry="23.21"/><ellipse class="cls-49" cx="396.69" cy="278.23" rx="11.96" ry="23.21"/><ellipse class="cls-10" cx="396.69" cy="278.23" rx="11.96" ry="23.21"/></g></g></svg>