<?xml version="1.0" encoding="UTF-8"?><svg xmlns="http://www.w3.org/2000/svg" xmlns:xlink="http://www.w3.org/1999/xlink" viewBox="0 0 841.89 292.33"><defs><style>.cls-1{fill:url(#_名称未設定グラデーション_55-2);}.cls-1,.cls-2,.cls-3,.cls-4,.cls-5,.cls-6,.cls-7,.cls-8,.cls-9,.cls-10,.cls-11,.cls-12,.cls-13,.cls-14,.cls-15,.cls-16,.cls-17,.cls-18,.cls-19,.cls-20,.cls-21,.cls-22,.cls-23,.cls-24,.cls-25,.cls-26,.cls-27,.cls-28,.cls-29,.cls-30,.cls-31,.cls-32,.cls-33,.cls-34,.cls-35,.cls-36,.cls-37,.cls-38,.cls-39,.cls-40,.cls-41,.cls-42,.cls-43,.cls-44,.cls-45,.cls-46,.cls-47,.cls-48,.cls-49,.cls-50,.cls-51,.cls-52,.cls-53,.cls-54,.cls-55,.cls-56,.cls-57,.cls-58,.cls-59,.cls-60,.cls-61,.cls-62,.cls-63,.cls-64{stroke-linecap:round;stroke-linejoin:round;}.cls-1,.cls-2,.cls-3,.cls-4,.cls-5,.cls-6,.cls-7,.cls-8,.cls-9,.cls-10,.cls-11,.cls-12,.cls-13,.cls-14,.cls-15,.cls-17,.cls-18,.cls-19,.cls-20,.cls-21,.cls-22,.cls-23,.cls-24,.cls-25,.cls-26,.cls-27,.cls-28,.cls-29,.cls-30,.cls-31,.cls-32,.cls-33,.cls-34,.cls-35,.cls-36,.cls-37,.cls-38,.cls-39,.cls-40,.cls-41,.cls-42,.cls-43,.cls-44,.cls-45,.cls-46,.cls-47,.cls-48,.cls-49,.cls-50,.cls-51,.cls-52,.cls-53,.cls-54,.cls-55,.cls-56,.cls-57,.cls-58,.cls-59,.cls-60,.cls-61,.cls-62,.cls-63,.cls-64{stroke:#4c4c64;stroke-width:2px;}.cls-65{fill:#4c4c64;}.cls-2{fill:url(#_名称未設定グラデーション_59-24);}.cls-3{fill:url(#_名称未設定グラデーション_59-13);}.cls-4{fill:url(#_名称未設定グラデーション_59-17);}.cls-5{fill:url(#_名称未設定グラデーション_55-16);}.cls-6{fill:url(#_名称未設定グラデーション_59-29);}.cls-7{fill:url(#_名称未設定グラデーション_55-21);}.cls-8{fill:url(#_名称未設定グラデーション_55-11);}.cls-9{fill:url(#_名称未設定グラデーション_63-2);}.cls-10{fill:url(#_名称未設定グラデーション_59-3);}.cls-11{fill:url(#_名称未設定グラデーション_55-15);}.cls-12{fill:url(#_名称未設定グラデーション_59-5);}.cls-13{fill:url(#_名称未設定グラデーション_62-3);}.cls-14{fill:url(#_名称未設定グラデーション_55-23);}.cls-15{fill:url(#_名称未設定グラデーション_55-10);}.cls-16{fill:#4b4b62;font-family:Quicksand-Light, Quicksand;font-size:144px;stroke:#171c61;}.cls-17{fill:url(#_名称未設定グラデーション_55-19);}.cls-18{fill:url(#_名称未設定グラデーション_59-2);}.cls-19{fill:url(#_名称未設定グラデーション_55-20);}.cls-20{fill:url(#_名称未設定グラデーション_62);}.cls-21{fill:url(#_名称未設定グラデーション_59-8);}.cls-22{fill:url(#_名称未設定グラデーション_55-9);}.cls-23{fill:url(#_名称未設定グラデーション_55-17);}.cls-24{fill:url(#_名称未設定グラデーション_59-7);}.cls-25{fill:url(#_名称未設定グラデーション_59-4);}.cls-26{fill:url(#_名称未設定グラデーション_59-22);}.cls-27{fill:url(#_名称未設定グラデーション_59-11);}.cls-28{fill:url(#_名称未設定グラデーション_55-3);}.cls-29{fill:url(#_名称未設定グラデーション_59-16);}.cls-30{fill:url(#_名称未設定グラデーション_55-27);}.cls-31{fill:url(#_名称未設定グラデーション_59-9);}.cls-32{fill:none;}.cls-33{fill:url(#_名称未設定グラデーション_62-4);}.cls-34{fill:url(#_名称未設定グラデーション_55-18);}.cls-35{fill:url(#_名称未設定グラデーション_55-24);}.cls-36{fill:url(#_名称未設定グラデーション_59-18);}.cls-37{fill:url(#_名称未設定グラデーション_59-26);}.cls-38{fill:url(#_名称未設定グラデーション_59-15);}.cls-39{fill:url(#_名称未設定グラデーション_55-14);}.cls-40{fill:url(#_名称未設定グラデーション_55-8);}.cls-41{fill:url(#_名称未設定グラデーション_59-21);}.cls-42{fill:url(#_名称未設定グラデーション_59-10);}.cls-43{fill:url(#_名称未設定グラデーション_55-25);}.cls-44{fill:url(#_名称未設定グラデーション_59);}.cls-45{fill:url(#_名称未設定グラデーション_55-7);}.cls-46{fill:url(#_名称未設定グラデーション_55-4);}.cls-47{fill:url(#_名称未設定グラデーション_63);}.cls-66{fill:url(#_名称未設定グラデーション_3);}.cls-48{fill:url(#_名称未設定グラデーション_55);}.cls-49{fill:url(#_名称未設定グラデーション_55-6);}.cls-50{fill:url(#_名称未設定グラデーション_59-14);}.cls-51{fill:url(#_名称未設定グラデーション_55-13);}.cls-52{fill:url(#_名称未設定グラデーション_59-20);}.cls-53{fill:url(#_名称未設定グラデーション_62-2);}.cls-54{fill:url(#_名称未設定グラデーション_59-27);}.cls-55{fill:url(#_名称未設定グラデーション_59-12);}.cls-56{fill:url(#_名称未設定グラデーション_55-26);}.cls-57{fill:url(#_名称未設定グラデーション_59-28);}.cls-58{fill:url(#_名称未設定グラデーション_59-23);}.cls-59{fill:url(#_名称未設定グラデーション_59-19);}.cls-60{fill:url(#_名称未設定グラデーション_59-6);}.cls-61{fill:url(#_名称未設定グラデーション_55-12);}.cls-62{fill:url(#_名称未設定グラデーション_59-25);}.cls-63{fill:url(#_名称未設定グラデーション_55-5);}.cls-64{fill:url(#_名称未設定グラデーション_55-22);}</style><linearGradient id="_名称未設定グラデーション_3" x1="98.76" y1="124.46" x2="210.67" y2="318.3" gradientTransform="translate(0 367.54) scale(1 -1)" gradientUnits="userSpaceOnUse"><stop offset="0" stop-color="#306eaf"/><stop offset="1" stop-color="#9dd4cc"/></linearGradient><linearGradient id="_名称未設定グラデーション_62" x1="83.97" y1="200.01" x2="229.43" y2="200.01" gradientTransform="translate(0 367.54) scale(1 -1)" gradientUnits="userSpaceOnUse"><stop offset="0" stop-color="#bae1e5"/><stop offset="1" stop-color="#d9e8e9"/></linearGradient><linearGradient id="_名称未設定グラデーション_62-2" x1="83.98" y1="200.78" x2="229.43" y2="200.78" xlink:href="#_名称未設定グラデーション_62"/><linearGradient id="_名称未設定グラデーション_59" x1="118.56" y1="264.26" x2="192.1" y2="136.89" gradientTransform="translate(0 367.54) scale(1 -1)" gradientUnits="userSpaceOnUse"><stop offset="0" stop-color="#eacf6c"/><stop offset="1" stop-color="#ebd88e"/></linearGradient><linearGradient id="_名称未設定グラデーション_55" x1="130.36" y1="82.18" x2="186.2" y2="178.91" gradientTransform="translate(0 367.54) scale(1 -1)" gradientUnits="userSpaceOnUse"><stop offset="0" stop-color="#f0a46b"/><stop offset="1" stop-color="#f2b98e"/></linearGradient><linearGradient id="_名称未設定グラデーション_59-2" x1="60.91" y1="230.96" x2="134.45" y2="103.6" xlink:href="#_名称未設定グラデーション_59"/><linearGradient id="_名称未設定グラデーション_55-2" x1="89.24" y1="105.92" x2="145.08" y2="202.64" xlink:href="#_名称未設定グラデーション_55"/><linearGradient id="_名称未設定グラデーション_59-3" x1="50" y1="224.67" x2="123.53" y2="97.3" xlink:href="#_名称未設定グラデーション_59"/><linearGradient id="_名称未設定グラデーション_55-3" x1="69.09" y1="117.55" x2="124.93" y2="214.28" xlink:href="#_名称未設定グラデーション_55"/><linearGradient id="_名称未設定グラデーション_55-4" x1="57.28" y1="173.06" x2="87.29" y2="225.04" xlink:href="#_名称未設定グラデーション_55"/><linearGradient id="_名称未設定グラデーション_59-4" x1="53.67" y1="226.79" x2="127.21" y2="99.41" xlink:href="#_名称未設定グラデーション_59"/><linearGradient id="_名称未設定グラデーション_55-5" x1="65.78" y1="168.14" x2="95.79" y2="220.12" xlink:href="#_名称未設定グラデーション_55"/><linearGradient id="_名称未設定グラデーション_59-5" x1="73.03" y1="237.96" x2="146.56" y2="110.6" xlink:href="#_名称未設定グラデーション_59"/><linearGradient id="_名称未設定グラデーション_55-6" x1="51.37" y1="176.46" x2="81.38" y2="228.44" xlink:href="#_名称未設定グラデーション_55"/><linearGradient id="_名称未設定グラデーション_59-6" x1="70.42" y1="236.45" x2="143.95" y2="109.09" xlink:href="#_名称未設定グラデーション_59"/><linearGradient id="_名称未設定グラデーション_55-7" x1="52.14" y1="176.02" x2="82.14" y2="228" xlink:href="#_名称未設定グラデーション_55"/><linearGradient id="_名称未設定グラデーション_59-7" x1="74.31" y1="238.7" x2="147.84" y2="111.33" xlink:href="#_名称未設定グラデーション_59"/><linearGradient id="_名称未設定グラデーション_55-8" x1="51.08" y1="176.63" x2="81.08" y2="228.61" xlink:href="#_名称未設定グラデーション_55"/><linearGradient id="_名称未設定グラデーション_59-8" x1="71.6" y1="237.13" x2="145.13" y2="109.77" xlink:href="#_名称未設定グラデーション_59"/><linearGradient id="_名称未設定グラデーション_55-9" x1="51.76" y1="176.24" x2="81.77" y2="228.22" xlink:href="#_名称未設定グラデーション_55"/><linearGradient id="_名称未設定グラデーション_59-9" x1="68.14" y1="235.14" x2="141.69" y2="107.78" xlink:href="#_名称未設定グラデーション_59"/><linearGradient id="_名称未設定グラデーション_55-10" x1="52.99" y1="175.52" x2="83" y2="227.5" xlink:href="#_名称未設定グラデーション_55"/><linearGradient id="_名称未設定グラデーション_59-10" x1="55.58" y1="227.89" x2="129.11" y2="100.51" xlink:href="#_名称未設定グラデーション_59"/><linearGradient id="_名称未設定グラデーション_55-11" x1="62.81" y1="169.86" x2="92.82" y2="221.84" xlink:href="#_名称未設定グラデーション_55"/><linearGradient id="_名称未設定グラデーション_59-11" x1="56.6" y1="228.48" x2="130.14" y2="101.11" xlink:href="#_名称未設定グラデーション_59"/><linearGradient id="_名称未設定グラデーション_55-12" x1="61.49" y1="170.62" x2="91.5" y2="222.6" xlink:href="#_名称未設定グラデーション_55"/><linearGradient id="_名称未設定グラデーション_59-12" x1="61.6" y1="231.37" x2="135.15" y2="104" xlink:href="#_名称未設定グラデーション_59"/><linearGradient id="_名称未設定グラデーション_55-13" x1="57.48" y1="172.94" x2="87.49" y2="224.91" xlink:href="#_名称未設定グラデーション_55"/><linearGradient id="_名称未設定グラデーション_59-13" x1="69.28" y1="235.8" x2="142.82" y2="108.44" xlink:href="#_名称未設定グラデーション_59"/><linearGradient id="_名称未設定グラデーション_55-14" x1="52.53" y1="175.79" x2="82.54" y2="227.77" xlink:href="#_名称未設定グラデーション_55"/><linearGradient id="_名称未設定グラデーション_59-14" x1="54.53" y1="227.28" x2="128.06" y2="99.91" xlink:href="#_名称未設定グラデーション_59"/><linearGradient id="_名称未設定グラデーション_55-15" x1="64.34" y1="168.98" x2="94.35" y2="220.95" xlink:href="#_名称未設定グラデーション_55"/><linearGradient id="_名称未設定グラデーション_59-15" x1="66.94" y1="234.44" x2="140.47" y2="107.08" xlink:href="#_名称未設定グラデーション_59"/><linearGradient id="_名称未設定グラデーション_55-16" x1="53.52" y1="175.22" x2="83.53" y2="227.2" xlink:href="#_名称未設定グラデーション_55"/><linearGradient id="_名称未設定グラデーション_55-17" x1="223.84" y1="166.41" x2="254.15" y2="218.9" xlink:href="#_名称未設定グラデーション_55"/><linearGradient id="_名称未設定グラデーション_59-16" x1="181.57" y1="300.63" x2="255.11" y2="173.26" xlink:href="#_名称未設定グラデーション_59"/><linearGradient id="_名称未設定グラデーション_55-18" x1="214.58" y1="171.76" x2="244.88" y2="224.25" xlink:href="#_名称未設定グラデーション_55"/><linearGradient id="_名称未設定グラデーション_59-17" x1="184.78" y1="302.48" x2="258.31" y2="175.12" xlink:href="#_名称未設定グラデーション_59"/><linearGradient id="_名称未設定グラデーション_55-19" x1="209.24" y1="174.84" x2="239.54" y2="227.33" xlink:href="#_名称未設定グラデーション_55"/><linearGradient id="_名称未設定グラデーション_59-18" x1="183.82" y1="301.92" x2="257.35" y2="174.56" xlink:href="#_名称未設定グラデーション_59"/><linearGradient id="_名称未設定グラデーション_55-20" x1="211.21" y1="173.71" x2="241.51" y2="226.19" xlink:href="#_名称未設定グラデーション_55"/><linearGradient id="_名称未設定グラデーション_59-19" x1="177.28" y1="298.15" x2="250.81" y2="170.78" xlink:href="#_名称未設定グラデーション_59"/><linearGradient id="_名称未設定グラデーション_55-21" x1="219.48" y1="168.93" x2="249.78" y2="221.42" xlink:href="#_名称未設定グラデーション_55"/><linearGradient id="_名称未設定グラデーション_59-20" x1="179.22" y1="299.28" x2="252.76" y2="171.91" xlink:href="#_名称未設定グラデーション_59"/><linearGradient id="_名称未設定グラデーション_55-22" x1="217.67" y1="169.98" x2="247.97" y2="222.46" xlink:href="#_名称未設定グラデーション_55"/><linearGradient id="_名称未設定グラデーション_59-21" x1="172.28" y1="295.27" x2="245.82" y2="167.9" xlink:href="#_名称未設定グラデーション_59"/><linearGradient id="_名称未設定グラデーション_55-23" x1="223.09" y1="166.85" x2="253.39" y2="219.33" xlink:href="#_名称未設定グラデーション_55"/><linearGradient id="_名称未設定グラデーション_59-22" x1="186.86" y1="303.68" x2="260.4" y2="176.32" xlink:href="#_名称未設定グラデーション_59"/><linearGradient id="_名称未設定グラデーション_55-24" x1="202.85" y1="178.54" x2="233.15" y2="231.02" xlink:href="#_名称未設定グラデーション_55"/><linearGradient id="_名称未設定グラデーション_59-23" x1="175.39" y1="297.06" x2="248.93" y2="169.69" xlink:href="#_名称未設定グラデーション_59"/><linearGradient id="_名称未設定グラデーション_55-25" x1="221.07" y1="168.01" x2="251.37" y2="220.5" xlink:href="#_名称未設定グラデーション_55"/><linearGradient id="_名称未設定グラデーション_59-24" x1="186.23" y1="303.32" x2="259.76" y2="175.95" xlink:href="#_名称未設定グラデーション_59"/><linearGradient id="_名称未設定グラデーション_55-26" x1="205.3" y1="177.12" x2="235.6" y2="229.6" xlink:href="#_名称未設定グラデーション_55"/><linearGradient id="_名称未設定グラデーション_59-25" x1="174.03" y1="296.28" x2="247.57" y2="168.91" xlink:href="#_名称未設定グラデーション_59"/><linearGradient id="_名称未設定グラデーション_55-27" x1="222.02" y1="167.47" x2="252.32" y2="219.96" xlink:href="#_名称未設定グラデーション_55"/><linearGradient id="_名称未設定グラデーション_59-26" x1="76.66" y1="276.62" x2="116.95" y2="346.4" xlink:href="#_名称未設定グラデーション_59"/><linearGradient id="_名称未設定グラデーション_59-27" x1="187.54" y1="264.6" x2="231.23" y2="340.27" xlink:href="#_名称未設定グラデーション_59"/><linearGradient id="_名称未設定グラデーション_59-28" x1="175.68" y1="297.23" x2="249.22" y2="169.87" xlink:href="#_名称未設定グラデーション_59"/><linearGradient id="_名称未設定グラデーション_59-29" x1="197.86" y1="258.61" x2="241.56" y2="334.3" xlink:href="#_名称未設定グラデーション_59"/><linearGradient id="_名称未設定グラデーション_62-3" x1="83.97" y1="211.32" x2="229.43" y2="211.32" xlink:href="#_名称未設定グラデーション_62"/><linearGradient id="_名称未設定グラデーション_63" x1="128.24" y1="211.32" x2="143.57" y2="211.32" gradientTransform="translate(0 367.54) scale(1 -1)" gradientUnits="userSpaceOnUse"><stop offset="0" stop-color="#f7d68f"/><stop offset="1" stop-color="#f0c66b"/></linearGradient><linearGradient id="_名称未設定グラデーション_62-4" x1="83.97" y1="211.32" x2="229.43" y2="211.32" xlink:href="#_名称未設定グラデーション_62"/><linearGradient id="_名称未設定グラデーション_63-2" x1="167.84" x2="183.16" xlink:href="#_名称未設定グラデーション_63"/></defs><g id="_レイヤー_2"><g id="_レイヤー_10"><circle class="cls-65" cx="154.71" cy="146.17" r="146.17"/></g><g id="_レイヤー_8"><circle class="cls-66" cx="154.71" cy="146.17" r="111.89"/></g><g id="_レイヤー_3"><g><path class="cls-32" d="M79.73,142.23c-.14,.42-.28,.85-.42,1.28,.13-.43,.28-.85,.42-1.28Z"/><path class="cls-32" d="M76.29,178.14c.1,.79,.22,1.59,.35,2.38-.13-.79-.24-1.58-.35-2.38Z"/><path class="cls-32" d="M80.27,140.66c-.03,.09-.06,.18-.09,.26,.03-.09,.06-.18,.09-.26Z"/><path class="cls-32" d="M75.97,175.31c.08,.79,.16,1.59,.26,2.38-.1-.79-.19-1.58-.26-2.38Z"/><path class="cls-32" d="M233.96,150.56c.12,.57,.24,1.14,.35,1.71-.11-.57-.22-1.14-.35-1.71Z"/><path class="cls-32" d="M77.19,151.74c-.03,.13-.05,.26-.08,.38,.03-.13,.05-.26,.08-.38Z"/><path class="cls-32" d="M79.21,143.85c-.16,.51-.31,1.03-.46,1.54,.15-.51,.3-1.03,.46-1.54Z"/><path class="cls-32" d="M231.26,141.03c.29,.83,.57,1.67,.84,2.51-.27-.84-.54-1.68-.84-2.51Z"/><path class="cls-32" d="M77.71,149.37c-.08,.36-.17,.72-.25,1.08,.08-.36,.16-.72,.25-1.08Z"/><path class="cls-32" d="M75.7,171.51c0,.07,0,.14,.01,.21,0-.07,0-.14-.01-.21Z"/><path class="cls-32" d="M75.78,172.72c.04,.61,.08,1.22,.13,1.83-.05-.61-.1-1.22-.13-1.83Z"/><path class="cls-32" d="M78.2,147.37c-.12,.47-.24,.94-.36,1.42,.12-.47,.23-.95,.36-1.42Z"/><path class="cls-32" d="M235.4,175.49c-.03,.24-.05,.49-.08,.73,.03-.24,.06-.49,.08-.73Z"/><path class="cls-32" d="M232.28,144.15c.55,1.79,1.03,3.6,1.45,5.43-.42-1.83-.91-3.63-1.45-5.43Z"/><path class="cls-32" d="M235.72,164.65c0,.27,.03,.53,.03,.8,0-.27-.02-.53-.03-.8Z"/><path class="cls-32" d="M235.58,173.39c0,.08-.01,.17-.02,.26,0-.08,.01-.17,.02-.26Z"/><path class="cls-32" d="M92.68,215.14c4.05,3.01,9.21,5.09,14.28,6.95-4.9-2.01-9.68-4.33-14.28-6.95Z"/><path class="cls-32" d="M78.7,145.56c-.15,.52-.29,1.04-.43,1.56,.14-.52,.28-1.04,.43-1.56Z"/><path class="cls-32" d="M235.78,166.98v0Z"/><path class="cls-32" d="M234.74,154.64c.03,.19,.06,.38,.09,.56-.03-.19-.06-.38-.09-.56Z"/><path class="cls-32" d="M235.09,178.24c-.09,.67-.19,1.35-.29,2.01,.1-.67,.21-1.34,.29-2.01Z"/><path class="cls-20" d="M105.26,129.85c-12.44,22.5-12.55,52.66-.09,75.33,31.52,14.12,72.63,13.62,103.75-1.19,1.57-3.07,2.94-6.25,4.11-9.53,7.39-20.02,5.72-44.73-4.19-63.41-31.07-14.76-72.09-15.26-103.57-1.19h0Zm30.64,41.25c-4.24,0-7.66-6.66-7.66-14.87s3.43-14.87,7.66-14.87,7.66,6.66,7.66,14.87-3.43,14.87-7.66,14.87Zm39.59,0c-4.24,0-7.66-6.66-7.66-14.87s3.43-14.87,7.66-14.87,7.66,6.66,7.66,14.87-3.43,14.87-7.66,14.87Z"/><path class="cls-53" d="M217.71,126.55c-18.15-9.05-34.36-16.53-60.96-17.53-26.6-1.01-56.79,10.67-56.79,10.67-7.33,10.75-15.98,41.79-15.98,41.79,0,0,.89,37.94,15.98,47,15.09,9.06,29.93,17.25,56.79,15.96,26.86-1.29,47.87-3.02,60.86-18.11,12.99-15.09,18.26-70.72,.1-79.77h0Zm-4.68,67.9c-1.17,3.28-2.54,6.47-4.11,9.53-31.12,14.81-72.23,15.31-103.75,1.19-12.46-22.67-12.35-52.83,.09-75.33,31.48-14.06,72.5-13.57,103.57,1.19,9.91,18.68,11.58,43.39,4.19,63.41h0Z"/><path class="cls-44" d="M235.76,165.45c0-.26-.02-.53-.03-.79-.12-3.17-.41-6.32-.9-9.44-.03-.19-.06-.38-.09-.56-.13-.79-.28-1.59-.43-2.38-.11-.57-.22-1.14-.35-1.71-.07-.33-.15-.65-.22-.98-.42-1.83-.9-3.64-1.45-5.43-.06-.21-.13-.41-.19-.61-.26-.85-.54-1.68-.83-2.51-.18-.5-.37-1-.56-1.5-2.86-7.65-6.86-14.87-11.88-21.24-6.5-3.68-13.35-6.8-20.43-9.3-.02,0-.04,.02-.06,.03-.28-.1-.56-.2-.84-.29-.01-.02-.03-.04-.04-.06-2.87-.99-5.77-1.88-8.7-2.66h0c-31.97-8.64-67.44-4.16-96.17,12.29-4.89,6.2-8.8,13.17-11.64,20.56h0c-.23,.6-.45,1.2-.67,1.81-.03,.09-.06,.17-.1,.26-.15,.44-.3,.87-.45,1.31-.14,.42-.28,.85-.42,1.28-.03,.12-.07,.23-.11,.35l-.46,1.54c-.01,.06-.03,.11-.04,.17-.15,.52-.29,1.04-.43,1.56-.03,.08-.04,.17-.07,.26-.12,.47-.24,.95-.35,1.42-.04,.19-.1,.38-.14,.58-.08,.36-.17,.72-.24,1.08-.1,.43-.19,.86-.27,1.29-.03,.13-.06,.26-.08,.38-1.25,6.37-1.72,12.9-1.41,19.38v.21c.02,.34,.04,.67,.06,1.01,.04,.61,.08,1.22,.13,1.83,.02,.25,.04,.51,.06,.76,.08,.79,.16,1.59,.26,2.38,.01,.15,.04,.29,.06,.45,.1,.79,.22,1.59,.35,2.38,0,.03,.01,.06,.01,.1,1.76,10.71,5.72,21.05,11.59,30.18,1.22,1.65,2.72,3.08,4.43,4.34,4.6,2.62,9.37,4.94,14.28,6.95,2.92,1.07,5.8,2.06,8.42,3.1,23.77,7.82,49.88,8.67,74,2.01,.01,0,.03,0,.04-.01,.79-.21,1.57-.44,2.35-.67,10.23-3.8,25.48-7.36,31.8-16.36,5.64-8.93,9.42-19.01,11.15-29.43,.03-.16,.05-.31,.08-.47,.11-.67,.2-1.35,.29-2.02s.17-1.35,.24-2.02c.03-.24,.05-.49,.08-.73,.06-.62,.11-1.23,.16-1.85,0-.08,0-.17,.01-.25,.13-1.89,.21-3.79,.21-5.68v-.73c0-.51-.01-1.02-.03-1.53h0Zm-26.84,38.54c-31.12,14.81-72.23,15.31-103.75,1.19-12.46-22.66-12.35-52.83,.09-75.33,31.48-14.06,72.5-13.57,103.57,1.19,9.91,18.68,11.58,43.39,4.19,63.41-1.17,3.28-2.54,6.47-4.11,9.53h0Z"/><path class="cls-48" d="M92.68,215.14c-.84-.47-1.67-.96-2.5-1.46-.67-.95-1.31-1.91-1.94-2.89-.14-.19-.28-.38-.42-.58-7.8,12.39-12.03,26.71-12.22,41.48,43.04,36.99,117.14,36.99,160.18,0-.2-14.77-4.41-29.08-12.22-41.48-6.18,8.93-21.65,12.6-31.8,16.36-.78,.24-1.57,.46-2.35,.67-.01,.01-.03,.02-.04,.01-.71,.2-1.44,.39-2.14,.56-23.23,5.91-48.12,5.13-70.93-2.26-.31-.13-.62-.25-.93-.38-2.85-.94-5.65-1.97-8.42-3.1-5.07-1.85-10.23-3.94-14.28-6.95h0Z"/><path class="cls-18" d="M115.38,225.19c-2.62-1.04-5.5-2.03-8.42-3.1,2.77,1.13,5.57,2.17,8.42,3.1Z"/><path class="cls-1" d="M115.38,225.19c-2.62-1.04-5.5-2.03-8.42-3.1,2.77,1.13,5.57,2.17,8.42,3.1Z"/><path class="cls-10" d="M92.68,215.14c-1.7-1.27-3.21-2.7-4.43-4.34,.63,.97,1.27,1.94,1.94,2.89,.83,.5,1.66,.98,2.5,1.46h0Z"/><path class="cls-28" d="M92.68,215.14c-1.7-1.27-3.21-2.7-4.43-4.34,.63,.97,1.27,1.94,1.94,2.89,.83,.5,1.66,.98,2.5,1.46h0Z"/><path class="cls-46" d="M76.29,178.14c-.02-.15-.04-.3-.06-.45-.1-.79-.19-1.58-.26-2.38-.03-.26-.04-.51-.06-.76-.05-.61-.1-1.22-.13-1.83,0-.13-.03-.27-.03-.41-.01-.2-.02-.4-.03-.6,0-.07,0-.14-.01-.21-.34-6.48,.15-13.01,1.41-19.38,.03-.13,.05-.26,.08-.38,.09-.43,.17-.86,.27-1.29,.08-.36,.16-.72,.25-1.08,.04-.19,.09-.38,.13-.58,.12-.47,.23-.95,.36-1.42,.03-.08,.04-.17,.07-.26,.13-.52,.28-1.04,.43-1.56,.01-.06,.03-.11,.05-.17,.15-.51,.3-1.03,.46-1.54,.04-.12,.07-.23,.11-.35,.13-.43,.27-.85,.42-1.28,.15-.44,.29-.87,.45-1.31,.03-.09,.06-.18,.09-.26,.22-.6,.44-1.2,.67-1.81-18.46,1.59-34.95,14.62-40.87,32.15,6.31,18.56,24.11,31.85,43.91,32.34-.53-1.07-1.04-2.15-1.53-3.25-2.78-6.21-4.7-12.78-5.79-19.48,0-.03-.01-.06-.01-.1-.13-.79-.24-1.58-.35-2.38v.02Z"/><path class="cls-25" d="M76.66,180.61s-.01-.06-.01-.1c0,.03,.01,.06,.01,.1Z"/><path class="cls-63" d="M76.66,180.61s-.01-.06-.01-.1c0,.03,.01,.06,.01,.1Z"/><path class="cls-12" d="M80.18,140.92c-.15,.44-.31,.87-.45,1.31,.15-.44,.29-.87,.45-1.31Z"/><path class="cls-49" d="M80.18,140.92c-.15,.44-.31,.87-.45,1.31,.15-.44,.29-.87,.45-1.31Z"/><path class="cls-60" d="M78.75,145.39c-.02,.06-.03,.11-.05,.17,.01-.06,.03-.11,.05-.17Z"/><path class="cls-45" d="M78.75,145.39c-.02,.06-.03,.11-.05,.17,.01-.06,.03-.11,.05-.17Z"/><path class="cls-24" d="M80.95,138.86h0c-.23,.6-.45,1.2-.67,1.81,.22-.6,.44-1.2,.67-1.81h0Z"/><path class="cls-40" d="M80.95,138.86h0c-.23,.6-.45,1.2-.67,1.81,.22-.6,.44-1.2,.67-1.81h0Z"/><path class="cls-21" d="M79.31,143.51c-.04,.12-.07,.23-.11,.35,.04-.12,.07-.23,.11-.35Z"/><path class="cls-22" d="M79.31,143.51c-.04,.12-.07,.23-.11,.35,.04-.12,.07-.23,.11-.35Z"/><path class="cls-31" d="M77.85,148.79c-.04,.19-.09,.38-.13,.58,.04-.19,.09-.38,.13-.58Z"/><path class="cls-15" d="M77.85,148.79c-.04,.19-.09,.38-.13,.58,.04-.19,.09-.38,.13-.58Z"/><path class="cls-42" d="M75.91,174.55c.02,.26,.04,.51,.06,.76-.03-.26-.04-.51-.06-.76Z"/><path class="cls-8" d="M75.91,174.55c.02,.26,.04,.51,.06,.76-.03-.26-.04-.51-.06-.76Z"/><path class="cls-27" d="M75.78,172.72c-.02-.33-.04-.67-.06-1,.01,.2,.02,.4,.03,.6,0,.13,.02,.27,.03,.41h0Z"/><path class="cls-61" d="M75.78,172.72c-.02-.33-.04-.67-.06-1,.01,.2,.02,.4,.03,.6,0,.13,.02,.27,.03,.41h0Z"/><path class="cls-55" d="M75.7,171.51c-.31-6.48,.16-13.01,1.41-19.38-1.26,6.38-1.75,12.9-1.41,19.38Z"/><path class="cls-51" d="M75.7,171.51c-.31-6.48,.16-13.01,1.41-19.38-1.26,6.38-1.75,12.9-1.41,19.38Z"/><path class="cls-3" d="M78.27,147.11c-.03,.08-.04,.17-.07,.26,.03-.08,.04-.17,.07-.26Z"/><path class="cls-39" d="M78.27,147.11c-.03,.08-.04,.17-.07,.26,.03-.08,.04-.17,.07-.26Z"/><path class="cls-50" d="M76.24,177.69c.02,.15,.04,.3,.06,.45-.02-.15-.04-.3-.06-.45Z"/><path class="cls-11" d="M76.24,177.69c.02,.15,.04,.3,.06,.45-.02-.15-.04-.3-.06-.45Z"/><path class="cls-38" d="M77.46,150.45c-.1,.43-.19,.86-.27,1.29,.09-.43,.18-.86,.27-1.29Z"/><path class="cls-5" d="M77.46,150.45c-.1,.43-.19,.86-.27,1.29,.09-.43,.18-.86,.27-1.29Z"/><path class="cls-23" d="M269.36,171c-1.61-4.64-3.9-8.97-6.77-12.84-7.59-10.33-19.26-17.34-32.05-19.07,.06,.14,.11,.29,.16,.44,.19,.5,.38,1,.56,1.5,.29,.83,.57,1.67,.84,2.51,.06,.21,.13,.4,.19,.61,.55,1.79,1.04,3.6,1.45,5.43,.08,.33,.15,.65,.22,.99,.12,.57,.24,1.14,.35,1.71,.15,.79,.29,1.58,.42,2.38,.03,.19,.06,.38,.09,.56,.49,3.13,.79,6.29,.9,9.44,.01,.27,.02,.53,.03,.8,0,.19,.02,.38,.02,.58,0,.31,0,.63,0,.95v.74c0,1.9-.06,3.79-.21,5.68,0,.08-.01,.17-.02,.26-.04,.62-.1,1.23-.16,1.84-.03,.24-.05,.49-.08,.73-.07,.67-.15,1.35-.24,2.02-.09,.67-.19,1.35-.29,2.01-.03,.15-.05,.31-.08,.47-1.28,7.8-3.68,15.42-7.23,22.51,19.12-1.33,35.74-14.33,41.87-32.23h0Z"/><path class="cls-29" d="M234.83,155.21c.49,3.13,.78,6.28,.9,9.44-.1-3.16-.4-6.32-.9-9.44Z"/><path class="cls-34" d="M234.83,155.21c.49,3.13,.78,6.28,.9,9.44-.1-3.16-.4-6.32-.9-9.44Z"/><path class="cls-4" d="M233.74,149.58c.08,.33,.15,.65,.22,.99-.07-.33-.15-.65-.22-.99Z"/><path class="cls-17" d="M233.74,149.58c.08,.33,.15,.65,.22,.99-.07-.33-.15-.65-.22-.99Z"/><path class="cls-36" d="M234.32,152.27c.15,.79,.29,1.58,.42,2.38-.13-.79-.27-1.59-.42-2.38Z"/><path class="cls-19" d="M234.32,152.27c.15,.79,.29,1.58,.42,2.38-.13-.79-.27-1.59-.42-2.38Z"/><path class="cls-59" d="M235.78,167.71c0,1.9-.07,3.79-.21,5.68,.13-1.89,.21-3.78,.21-5.68Z"/><path class="cls-7" d="M235.78,167.71c0,1.9-.07,3.79-.21,5.68,.13-1.89,.21-3.78,.21-5.68Z"/><path class="cls-52" d="M235.78,166.02c0-.19-.02-.38-.02-.58,.01,.51,.02,1.02,.03,1.53v-.95h0Z"/><path class="cls-64" d="M235.78,166.02c0-.19-.02-.38-.02-.58,.01,.51,.02,1.02,.03,1.53v-.95h0Z"/><path class="cls-41" d="M234.72,180.72c.03-.15,.05-.31,.08-.47-.03,.15-.05,.31-.08,.47Z"/><path class="cls-14" d="M234.72,180.72c.03-.15,.05-.31,.08-.47-.03,.15-.05,.31-.08,.47Z"/><path class="cls-26" d="M230.7,139.53c.19,.5,.38,1,.56,1.5-.18-.51-.37-1-.56-1.5Z"/><path class="cls-35" d="M230.7,139.53c.19,.5,.38,1,.56,1.5-.18-.51-.37-1-.56-1.5Z"/><path class="cls-58" d="M235.56,173.64c-.04,.62-.1,1.23-.16,1.84,.06-.62,.11-1.22,.16-1.84Z"/><path class="cls-43" d="M235.56,173.64c-.04,.62-.1,1.23-.16,1.84,.06-.62,.11-1.22,.16-1.84Z"/><path class="cls-2" d="M232.1,143.54c.06,.21,.13,.4,.19,.61-.06-.21-.13-.41-.19-.61Z"/><path class="cls-56" d="M232.1,143.54c.06,.21,.13,.4,.19,.61-.06-.21-.13-.41-.19-.61Z"/><path class="cls-62" d="M235.33,176.22c-.07,.67-.15,1.35-.24,2.02,.09-.67,.17-1.35,.24-2.02Z"/><path class="cls-30" d="M235.33,176.22c-.07,.67-.15,1.35-.24,2.02,.09-.67,.17-1.35,.24-2.02Z"/><path class="cls-37" d="M110.85,109.21c8.07-12.79,12.35-27.4,12.35-42.76,0-20.59-7.77-39.36-20.53-53.55-16.75,7.26-31.89,18.19-44.07,31.67,4.02,29.96,24.58,54.67,52.24,64.64h0Z"/><path class="cls-54" d="M249.85,45.81c-12.14-13.81-27.35-25.02-44.25-32.5-22.89,24.48-26.94,66.62-8.16,95.35,.31,.11,.63,.22,.95,.33,27.01-9.98,47.08-34.01,51.46-63.19h0Z"/><path class="cls-57" d="M198.33,109.02s.04-.02,.06-.03c-.31-.11-.63-.22-.95-.33,.01,.02,.03,.04,.04,.06,.28,.1,.56,.19,.84,.29h0Z"/><path class="cls-6" d="M198.33,109.02s.04-.02,.06-.03c-.31-.11-.63-.22-.95-.33,.01,.02,.03,.04,.04,.06,.28,.1,.56,.19,.84,.29h0Z"/><ellipse class="cls-13" cx="135.91" cy="156.22" rx="7.66" ry="14.87"/><ellipse class="cls-47" cx="135.91" cy="156.22" rx="7.66" ry="14.87"/><ellipse class="cls-33" cx="175.5" cy="156.22" rx="7.66" ry="14.87"/><ellipse class="cls-9" cx="175.5" cy="156.22" rx="7.66" ry="14.87"/></g></g></g><g id="_レイヤー_3-2"><text class="cls-16" transform="translate(376.71 185.05)"><tspan x="0" y="0">Shimiiy</tspan></text></g></svg>